<svg xmlns="http://www.w3.org/2000/svg" version="1.1" xmlns:xlink="http://www.w3.org/1999/xlink" xmlns:svgjs="http://svgjs.dev/svgjs" viewBox="0 0 800 800"><defs><linearGradient x1="50%" y1="0%" x2="50%" y2="100%" id="ssscribble-grad"><stop stop-color="hsl(206, 75%, 49%)" stop-opacity="1" offset="0%"></stop><stop stop-color="hsl(331, 90%, 56%)" stop-opacity="1" offset="100%"></stop></linearGradient></defs><g fill="none" stroke-width="1.5" stroke="url(#ssscribble-grad)" stroke-linecap="round"><path d="M650.5 572.09C758.76 604.95 950.18 645.11 1078.65 689.87 1059.29 732.39 904.89 774.93 720.02 811.61 605.54 838.89 614.97 851.81 717.71 844.39 857.01 822.09 950.66 778.43 963.39 717.98 897.36 659.99 778.06 607.53 647.13 577.49 520.42 586.85 426.71 638.29 366.37 730.71 330.3 847.77 311.89 967.61 296.98 1059.65 288.23 1099.58 270.06 1073.28 237.2 984.11 204.34 862.26 158.34 743.68 105.12 661.06 58.06 633.77 16.69 662.06 -4.18 730.2 -0.78 823.1 38.8 909.2 114.87 968.59 195.14 996.43 267.27 983.16 290.23 936.23 234.43 862.99 101.81 775.59 -71.69 686.48 -208.65 595.66 -247.55 515.02 -157.15 447.16 3.62 385.03 139.31 333.87 145.99 291.18 4.84 250.86 -193.23 214.86 -301.49 181.99 -234.55 149.13 -45.96 120.97 122.01 99.32 158.87 80.03 52.57 71.41 -109.76 76.59 -229.85 87.5 -229.29 114.02 -118.49 154.19 51.07 192.66 201.82 232.88 286.29 263.06 293.36 266.93 240.84 241.24 167.11 179.2 86 85.6 33.59 -29.96 15.36 -146.95 19.24 -239.18 47.11 -286.18 85.38 -271.59 130.43 -201.66 172.46 -89.75 205.32 32.09 238.18 121.27 260.31 154.25 277.24 127.01 300.94 47.67 332.85 -53.46 385.92 -146.44 461.09 -214.78 567.63 -236.76 699.37 -211.91 823.75 -147.66 923.45 -56.25 959.45 44.81 918.05 148.32 806.26 239.16 670.91 312.11 594.32 370.18 623.23 411.38 767.41 441.05 953.84 461.32 1078.84 478.56 1054.67 498.01 899.36 515.23 717.44 539.23 650.5 572.09Q650.5 572.09 650.5 572.09" opacity="0.60"></path><path d="M616.5 624.95C712.34 655.46 888.35 686.53 1026.31 716.03 1047.22 743.26 937.58 764.66 766.19 775.96 615.97 779.97 555.61 768.89 592.4 740.78 700.88 705.91 818.31 658.49 896.25 605.8 918.94 565.26 876.95 539.07 793.25 539.58 681.54 575.67 570.86 646.56 476.87 746.52 391.99 858.47 328.76 964.08 282.06 1038.82 240.88 1065.58 206.91 1034.65 176.4 950.11 145.88 837.28 120.27 724.99 103.9 640.37 93.06 600.67 100.78 609.41 132.78 657.22 173.89 734.66 234.33 816.74 299 885.24 335.68 935.13 333.86 952.44 271.17 938.64 153.24 899.12 -0.36 839.19 -140.61 769.16 -209.18 690.33 -176.18 613.55 -48.33 544.16 100.69 475.78 192.96 417.1 160.27 368.56 10.54 321.22 -171.65 282.22 -267.49 251.7 -210.8 221.19 -41.39 200.6 127.95 190.4 199.83 181.39 141.7 184.55 3.79 200.06 -139.81 216.57 -205.43 243.1 -169.31 274.9 -49.7 297.9 102.9 314.03 235.8 313.56 324.1 287.37 351.86 233.89 334.86 152.24 282.99 51.97 226.16 -57.46 182.44 -157.27 143.08 -227.46 126.8 -253.58 130.69 -225.66 139.39 -152.83 160.76 -46.73 191.27 66.09 221.78 150.65 260 187.78 308.84 172.8 362.5 109.84 434.29 21.6 526.53 -67.97 623.13 -145.57 730.21 -189.1 829.1 -193.42 893.13 -162.17 909.18 -99.81 860.88 -19.28 767.96 73.39 651.54 164.62 563.7 246.52 559.35 321.66 652.33 382.99 818.31 431.87 978.59 473.45 1054.09 507.56 993.98 537.87 836.41 565.93 673.19 594.44 616.5 624.95Q616.5 624.95 616.5 624.95" opacity="0.30"></path><path d="M582.5 605.15C666.48 633.31 825.72 655.88 967 671.75 1021.27 686.01 958.81 690.79 817.82 684.17 658.3 673.72 547.04 650.62 514.54 616.2 560.95 582.5 653.55 544.86 750.19 511.11 830.96 494.58 865.36 496.68 854.23 525.03 806.09 581.93 733.63 664.77 655 765.35 568.51 867.71 492.49 957.31 432.07 1015.22 372.78 1030.19 328.81 995.73 300.64 916.11 272.47 812.31 261.45 707 267.61 622.27 274.92 572.9 299.7 564.27 337.37 591.77 367.19 650.33 393.27 721.39 397.99 789.69 365.72 851.11 290.88 890.11 173.19 904.03 39.63 897.02 -86.35 868.17 -162.09 824.5 -158.91 768.75 -72.91 708.15 65.95 648.85 186.29 586.79 232.72 530.77 167.58 483.34 15.43 435.89 -149.51 397.47 -233.49 369.3 -186.33 341.13 -36.77 324.55 128.08 318.87 226.48 313.19 215.44 317.96 115.84 331.21 -77.98 348.81 -63.83 362.73 121.58 327.04 249.99 276.21 343.72 203.82 396.57 113.07 412.66 15.45 402.09 -80.87 381.85 -160.08 350.12 -208.23 327.14 -215.64 319.58 -177.15 311.98 -103.3 321.79 -3.7 349.95 100.09 378.12 179.72 423.32 219.91 484.03 215.82 544.71 168.78 618.94 95.22 699.48 13.5 797.01 -95.22 816.72 -134.97 698.58 -65.88 604.5 4.78 529.06 82.86 511.75 159.96 574.33 237.8 706.89 307.28 867.72 366.54 987.96 421.98 1015.03 468.44 927.5 507.29 773.51 544.54 629.66 576.98 582.5 605.15Q582.5 605.15 582.5 605.15" opacity="0.73"></path><path d="M548.5 519.07C621.21 544.89 762.74 561.42 901.64 568.64 981 575.2 963.49 571.51 863.88 557.84 719.67 543.86 584.61 521.57 497.62 494.27 473.91 472.91 508.96 454.38 577.6 445.45 665.08 454.41 738.34 482.25 783.47 532.43 804.57 602.63 794.94 689.71 764.77 784.73 719.53 874.04 668.88 946.7 622.04 988.72 572.39 993.41 532.93 956.51 507.11 882.11 481.29 787.34 470.33 689.62 471.29 606.57 469.44 550.35 473.12 527.11 473.61 535.53 459.04 573.66 426.15 628.7 365.26 688.84 280.33 751.38 170 801.47 48.68 834.13 -53.79 852.93 -119.45 852.31 -122.63 835.84 -62.52 807.65 49.37 770.16 174.66 728.72 255.35 682.58 258.16 637.79 168.83 597.75 19.97 556.85 -126.78 522.63 -199.49 496.81 -161.1 470.99 -31.63 454.78 123.58 447 239.19 438.34 269.82 436.16 215.65 437.56 101.55 434.25 -17.81 429.22 -98.76 417.62 -123.53 394.31 -82.98 357.86 3.04 305.23 117.8 238.73 231.96 158.03 327.42 68.61 404.06 -18.41 453.04 -96.61 481.29 -153.67 493.96 -181.03 499.54 -172.49 506.99 -126.24 510.95 -53.17 524.18 39.3 550 134.08 575.82 208.49 613 250.63 657.74 255.92 698.99 223.88 740.37 165.92 772.45 95.53 788.94 19.43 782.48 -44.49 745.63 -87.8 689.97 -111.1 612.88 -108.33 531.96 -83.46 479.77 -40.69 469.84 14.9 521.49 76.05 629.32 143.15 771.85 207.96 904.87 266.69 977.97 325.1 962.04 375.76 856.39 417.9 711.13 459.36 586.89 493.26 548.5 519.07Q548.5 519.07 548.5 519.07" opacity="0.97"></path><path d="M514.51 394.55C576.64 418.02 699.94 431.79 831.43 436.6 926.9 441.59 948.06 438.21 893.98 428.14 783.74 420.28 653.26 408.99 538.57 398.07 459.31 395.37 429.58 399.65 442.35 415.66 490.74 446.87 552.79 494.26 611.17 558.13 667.13 633.55 703.17 717.68 718.78 802.1 723.8 876.07 713.88 931.74 695.15 959.23 672.84 955.26 648.39 917 624.92 848.12 601.45 762.35 580.06 672.75 558.11 593.03 532.57 532.78 499.79 498.11 454.1 489.78 397.81 507.74 323.12 544.02 230.97 590.18 136.42 644.9 40.67 695.56 -38.47 736.44 -82.01 770.83 -80.11 790.6 -25.29 796.39 64.96 793.37 174.38 779.45 267.42 758.18 304.29 732.12 269.77 703.1 165.25 674.2 24.7 644.1 -103.35 616.53 -165.48 593.06 -135.1 569.59 -25.54 551.33 115.79 537.16 239.23 521.79 302.7 508.11 294.07 493.49 220.99 474.08 117.15 449.35 18.79 416.2 -55.02 374.23 -80.32 320.76 -58.6 255.61 2.34 183.96 87.5 105.48 178.67 26.32 273.4 -44.28 354.9 -101.6 419.49 -136.78 475.46 -145.65 517.2 -124.33 549.14 -73.15 577.64 -2.48 602.48 82.35 625.95 168.12 659.92 258.51 699 253.46 684.2 175.54 660.29 108.32 617.45 45.24 558.89 -5.73 478.16 -54.94 457.82 -35.7 582.63 17.88 705.43 64.97 830.32 114.92 920.61 163.45 946.47 214.2 896.39 260.27 782.02 299.55 649.74 339.01 544.91 371.07 514.5 394.54Q514.51 394.55 514.51 394.55" opacity="0.93"></path><path d="M480.43 271.66C532.27 292.79 637.08 306.7 756.98 314.34 859.81 322.68 910.76 326.22 900.14 327.02 834.31 331.12 731.74 335.99 619.24 344.79 513.67 361.42 436.08 386.51 392.28 422.57 381.21 469.25 396.51 527.77 426.03 596.45 468.99 669.46 509.21 744.67 539.62 814.91 577 892.16 582.53 896.37 556.13 814.01 535.01 737.21 504.32 656.17 463.83 581.25 421.73 519.71 367.48 477.03 301.41 455.1 234.39 454.83 159.38 471.89 83.86 500.85 21.78 541.37 -23.84 583.82 -40.46 622.91 -24.35 661.64 28.19 691.31 111.76 710.62 244.08 727.28 299.89 710.86 157.41 686.7 29.36 668.24 -79.72 647.95 -131.56 626.83 -107.94 605.7 -17.35 584.74 106.97 563.37 229.28 540.91 314.31 516.03 344.7 487.12 317.75 454.66 248.95 415.48 162.68 368.46 73.1 316.59 6.77 256.59 -26.74 190.18 -29.53 123.4 -0.82 55.91 48.56 -6.6 114.65 -57.57 184.85 -93.58 250.46 -108.79 317.47 -102.36 374.04 -71.71 418.46 -18.32 461.87 48.42 494.31 125.17 515.43 201.98 540.96 286.5 528.14 306.77 488.67 251.02 459.67 196.26 424.27 140 390.73 88.98 373.9 42.29 375.52 8.81 406 -10.17 467.21 -18.54 558.58 -13.3 670.16 2.61 778.43 26.37 866.17 56.3 908.61 88.8 893.7 124.61 820.69 159.5 706.54 191 590.36 223.2 504.06 250.54 480.43 271.66Q480.43 271.66 480.43 271.66" opacity="0.67"></path><path d="M446.5 190.4C489.52 209.17 576.61 224.8 681.76 237.98 783.28 251.97 852.53 265.1 876.79 278.98 855.62 295.96 794.06 316.45 708.15 342.4 609.07 374.08 515.42 413.55 438.3 461.42 379.01 514.96 342.97 575.66 326.15 640.88 325.88 705.19 335.17 767.18 346.76 821.27 370.29 874.8 380.78 856.03 358.7 780.09 339.92 712.2 309.85 640.06 270.24 571.26 231.38 510.98 184.94 463.79 135.01 432 90.87 416.74 50.67 416.25 21.99 427.48 9.87 450.56 18.95 478.98 53.63 508.54 106.14 541.74 177.53 570.91 257.05 593.81 323.41 615.57 368.14 629.64 375.54 635.91 337.52 640.41 257.58 638.05 148.81 629.57 36.41 620.42 -54.47 606.31 -97.49 587.53 -80.54 568.76 -8.46 546.2 96.55 519.93 210.33 493 305.75 461.19 365.12 424.15 381.15 385.34 356.34 340.35 303.26 289.65 229.64 237.81 156.29 181.68 95.9 123.88 48.44 69.7 24.8 19.02 22.93 -23.6 37.54 -54.38 66.36 -70.74 102.16 -69.24 144.95 -51.22 186.84 -14.72 223.16 38.31 260.71 99.87 289.9 168.2 308.68 236.09 329.62 334.18 311.71 257.11 327.08 189.78 357.89 144.11 408.48 105.68 480.54 76.75 565.53 53.49 661.16 40.98 754.32 38.23 826.96 41.23 868.63 51.66 866.38 67.23 820.79 85.88 736.07 106.92 629.54 128.34 531.77 150.57 463.47 171.61 446.49 190.39Q446.5 190.4 446.5 190.4" opacity="0.11"></path><path d="M412.49 176.74C520.75 209.6 704.22 246.96 823.4 293.33 821.39 347.97 702.7 423.84 550.66 521.59 404.74 625.49 312.99 734 266.29 818.96 244.68 858.31 227.78 835.26 194.92 746.08 162.06 624.23 116.34 504.8 81.01 419.74 70.76 380.26 111.22 382.57 214.08 407.74 323.05 454.07 406.89 492.77 384.8 510.54 241.54 527.57 44.75 520.41 -63.5 487.55 3.43 454.69 190.47 399.23 356.69 325.26 418.42 250.54 365.08 160.56 266.27 71.16 155.46 2.91 96.99 -34.23 90.95 -18.84 108.91 42.12 145.24 148.23 178.1 270.08 210.96 359.26 237.24 395.63 276.23 380.36 339.22 319.49 448.98 245.84 602.86 185.01 744.73 130.32 832.93 105.74 795.28 108.05 653.15 118.63 479.43 143.88 412.49 176.74Q412.49 176.74 412.49 176.74" opacity="0.86"></path><path d="M378.51 235.19C462.52 263.35 614.72 306.04 742.76 362.54 802.34 422.61 765.28 500.27 670.53 589.39 543.3 674.13 428.59 753.41 346.68 806.65 275.6 823 229.06 791.74 200.89 712.12 172.72 608.32 165.6 502.47 187.87 417.51 220.97 361.3 291.72 336.18 382.03 333.24 439.87 350.79 447.05 370.6 366.82 380.22 218.13 392.87 54.52 387.42 -29.48 359.26 17.63 331.09 165.87 282.87 324.71 221.41 433.71 162.98 457.93 99.2 421.86 44.74 343.06 10.76 272 6.01 233.56 41.56 202.22 105.87 202.98 200.29 231.14 304.09 259.3 383.72 312.2 426.41 392.34 430.71 479.6 398.12 594.62 348.72 710.34 300.9 783.34 248.69 789.01 214.98 700.67 203.72 562.49 196.03 425.66 207.01 378.5 235.18Q378.51 235.19 378.51 235.19" opacity="0.71"></path><path d="M344.51 346.87C406.63 370.34 524.11 410.65 641.41 463.94 732.37 517.28 761.1 582.02 736.17 649.82 672.41 708.86 592.28 757.82 521.39 783.38 447.36 782.26 395.08 747 371.61 678.12 348.14 592.35 355.7 502.42 389.05 423.8 419.26 360.81 462.76 318.1 495.76 293.3 489.92 283.84 436.3 281.3 328.13 277.24 193.62 277.2 66.63 267.62 4.51 244.15 34.89 220.68 143.61 185.53 277.68 144.9 401.08 108.29 478.01 74.19 506.02 52.89 493.36 46.92 462.43 64.73 438 110.51 407.64 171.92 400.47 252.32 423.94 338.09 447.39 406.98 499.28 451.77 570.31 470.1 635.43 461.75 702.99 437.68 746.43 409.41 749.2 372.37 697.18 344.26 590.99 331.6 474.13 318.98 374.91 323.39 344.5 346.86Q344.51 346.87 344.51 346.87" opacity="0.66"></path><path d="M310.47 475.65C353.34 494.43 435.88 525.96 528.45 565.91 620.38 604.32 682.38 647.69 708.92 688.96 710.83 721.88 688.44 744.27 656.99 748.71 618.11 736.26 584.81 701.1 566.04 644.07 547.26 576.18 544.77 503.83 551.11 436.69 550.02 376.24 543.11 327.13 516.58 290.47 465.43 262.72 383.51 242.56 277.82 226.25 171.49 213.01 81.34 198.11 38.47 179.33 55.58 160.56 127.47 139.68 226.37 120.37 334.97 104.14 427.9 95 493.15 98.14 536.48 110.19 557.65 139.38 568.32 186.06 570.93 239.44 577.98 304.18 596.76 372.07 615.54 429.1 644.27 471.87 674.2 498.08 696.07 507.41 704.21 504.94 685.48 496.63 644.85 479.97 571.83 465.9 476.99 460.03 391.86 452.62 327.58 456.88 310.47 475.65Q310.47 475.65 310.47 475.65" opacity="0.99"></path><path d="M276.51 580.09C360.52 608.25 498.62 656.97 590.42 696.63 651.79 714.5 650.96 689.74 622.79 610.12 594.62 506.31 544.45 399.43 446.16 321.41 317.45 258.02 156.52 214.04 72.51 185.87 119.64 157.7 265.31 150.69 398.67 177.16 513.82 218.26 578.74 302.31 606.91 406.12 635.08 485.74 621.16 533.34 542.92 552.38 446.48 549.63 323.64 551.92 276.51 580.09Q276.51 580.09 276.51 580.09" opacity="0.50"></path><path d="M242.5 626.29C377.05 663.85 532.87 673.57 495.32 576.11 457.76 436.28 241.05 299.07 106.5 261.51 195.89 223.96 408.16 300.28 445.72 440.11 483.27 537.57 331.89 588.74 242.5 626.29Q242.5 626.29 242.5 626.29" opacity="0.55"></path></g></svg>